# MagicaVoxel @ Ephtracy

# group
o 

# material
mtllib nature.mtl
usemtl palette

# normals
vn -1 0 0
vn 1 0 0
vn 0 0 1
vn 0 0 -1
vn 0 -1 0
vn 0 1 0

# texcoords
vt 0.537109 0.5
vt 0.685547 0.5
vt 0.724609 0.5
vt 0.904297 0.5

# verts
v 0 2 -0.1
v 0 2 -4
v 0 2.1 -0.1
v 0 2.1 -4
v 0 3.8 -1.2
v 0 3.8 -3
v 0 5.3 -1.2
v 0 5.3 -1.5
v 0 5.3 -2.2
v 0 5.3 -3
v 0 5.4 -1.5
v 0 5.4 -2.2
v 0.1 3.6 -1
v 0.1 3.6 -3
v 0.1 3.8 -1.2
v 0.1 3.8 -3
v 0.1 5.3 -1
v 0.1 5.3 -1.2
v 0.4 2.1 -2
v 0.4 2.1 -2.4
v 0.4 3.6 -2
v 0.4 3.6 -2.4
v 1.3 2.1 -0.8
v 1.3 2.1 -3.5
v 1.3 2.2 -0.8
v 1.3 2.2 -3.5
v 1.4 2.1 -0.1
v 1.4 2.1 -0.8
v 1.4 2.1 -3.5
v 1.4 2.1 -4
v 1.4 2.2 -0.1
v 1.4 2.2 -0.8
v 1.4 2.2 -3.5
v 1.4 2.2 -4
v 3.2 2.1 -0.1
v 3.2 2.1 -4
v 3.2 2.2 -0.1
v 3.2 2.2 -4
v 0.2 5.3 -1.5
v 0.2 5.3 -2.2
v 0.2 5.4 -1.5
v 0.2 5.4 -2.2
v 0.6 2.1 -2
v 0.6 2.1 -2.4
v 0.6 3.6 -2
v 0.6 3.6 -2.4
v 1.2 3.6 -1
v 1.2 3.6 -3
v 1.2 5.3 -1
v 1.2 5.3 -3
v 1.7 2.1 -0.1
v 1.7 2.1 -4
v 1.7 2.2 -0.1
v 1.7 2.2 -4
v 3.5 2.1 -0.1
v 3.5 2.1 -0.7
v 3.5 2.1 -3.7
v 3.5 2.1 -4
v 3.5 2.2 -0.1
v 3.5 2.2 -0.7
v 3.5 2.2 -3.7
v 3.5 2.2 -4
v 3.6 2.1 -0.7
v 3.6 2.1 -3.7
v 3.6 2.2 -0.7
v 3.6 2.2 -3.7
v 3.9 2 -0.1
v 3.9 2 -4
v 3.9 2.1 -0.1
v 3.9 2.1 -4
v 0 2 -0.1
v 0 2.1 -0.1
v 1.4 2.1 -0.1
v 1.4 2.2 -0.1
v 1.7 2 -0.1
v 1.7 2.1 -0.1
v 1.7 2.2 -0.1
v 3.2 2 -0.1
v 3.2 2.1 -0.1
v 3.2 2.2 -0.1
v 3.5 2.1 -0.1
v 3.5 2.2 -0.1
v 3.9 2 -0.1
v 3.9 2.1 -0.1
v 3.5 2.1 -0.7
v 3.5 2.2 -0.7
v 3.6 2.1 -0.7
v 3.6 2.2 -0.7
v 1.3 2.1 -0.8
v 1.3 2.2 -0.8
v 1.4 2.1 -0.8
v 1.4 2.2 -0.8
v 0.1 3.6 -1
v 0.1 5.3 -1
v 1.2 3.6 -1
v 1.2 5.3 -1
v 0 3.8 -1.2
v 0 5.3 -1.2
v 0.1 3.8 -1.2
v 0.1 5.3 -1.2
v 0 5.3 -1.5
v 0 5.4 -1.5
v 0.2 5.3 -1.5
v 0.2 5.4 -1.5
v 0.4 2.1 -2
v 0.4 3.6 -2
v 0.6 2.1 -2
v 0.6 3.6 -2
v 0 5.3 -2.2
v 0 5.4 -2.2
v 0.2 5.3 -2.2
v 0.2 5.4 -2.2
v 0.4 2.1 -2.4
v 0.4 3.6 -2.4
v 0.6 2.1 -2.4
v 0.6 3.6 -2.4
v 0 3.8 -3
v 0 5.3 -3
v 0.1 3.6 -3
v 0.1 3.8 -3
v 1.2 3.6 -3
v 1.2 5.3 -3
v 1.3 2.1 -3.5
v 1.3 2.2 -3.5
v 1.4 2.1 -3.5
v 1.4 2.2 -3.5
v 3.5 2.1 -3.7
v 3.5 2.2 -3.7
v 3.6 2.1 -3.7
v 3.6 2.2 -3.7
v 0 2 -4
v 0 2.1 -4
v 1.4 2.1 -4
v 1.4 2.2 -4
v 1.7 2 -4
v 1.7 2.1 -4
v 1.7 2.2 -4
v 3.2 2 -4
v 3.2 2.1 -4
v 3.2 2.2 -4
v 3.5 2.1 -4
v 3.5 2.2 -4
v 3.9 2 -4
v 3.9 2.1 -4
v 0 2 -0.1
v 1.7 2 -0.1
v 3.2 2 -0.1
v 3.9 2 -0.1
v 0 2 -4
v 1.7 2 -4
v 3.2 2 -4
v 3.9 2 -4
v 0.1 3.6 -1
v 1.2 3.6 -1
v 0.4 3.6 -2
v 0.6 3.6 -2
v 0.4 3.6 -2.4
v 0.6 3.6 -2.4
v 0.1 3.6 -3
v 1.2 3.6 -3
v 0 3.8 -1.2
v 0.1 3.8 -1.2
v 0 3.8 -3
v 0.1 3.8 -3
v 0 2.1 -0.1
v 1.4 2.1 -0.1
v 1.7 2.1 -0.1
v 3.2 2.1 -0.1
v 3.5 2.1 -0.1
v 3.9 2.1 -0.1
v 3.5 2.1 -0.7
v 3.6 2.1 -0.7
v 1.3 2.1 -0.8
v 1.4 2.1 -0.8
v 0.4 2.1 -2
v 0.6 2.1 -2
v 0.4 2.1 -2.4
v 0.6 2.1 -2.4
v 1.3 2.1 -3.5
v 1.4 2.1 -3.5
v 3.5 2.1 -3.7
v 3.6 2.1 -3.7
v 0 2.1 -4
v 1.4 2.1 -4
v 1.7 2.1 -4
v 3.2 2.1 -4
v 3.5 2.1 -4
v 3.9 2.1 -4
v 1.4 2.2 -0.1
v 1.7 2.2 -0.1
v 3.2 2.2 -0.1
v 3.5 2.2 -0.1
v 3.5 2.2 -0.7
v 3.6 2.2 -0.7
v 1.3 2.2 -0.8
v 1.4 2.2 -0.8
v 1.3 2.2 -3.5
v 1.4 2.2 -3.5
v 3.5 2.2 -3.7
v 3.6 2.2 -3.7
v 1.4 2.2 -4
v 1.7 2.2 -4
v 3.2 2.2 -4
v 3.5 2.2 -4
v 0.1 5.3 -1
v 1.2 5.3 -1
v 0 5.3 -1.2
v 0.1 5.3 -1.2
v 0 5.3 -1.5
v 0.2 5.3 -1.5
v 0 5.3 -2.2
v 0.2 5.3 -2.2
v 0 5.3 -3
v 1.2 5.3 -3
v 0 5.4 -1.5
v 0.2 5.4 -1.5
v 0 5.4 -2.2
v 0.2 5.4 -2.2

# faces
f 3/3/1 2/3/1 1/3/1
f 4/3/1 2/3/1 3/3/1
f 7/4/1 6/4/1 5/4/1
f 8/4/1 6/4/1 7/4/1
f 9/4/1 6/4/1 8/4/1
f 10/4/1 6/4/1 9/4/1
f 11/4/1 9/4/1 8/4/1
f 12/4/1 9/4/1 11/4/1
f 15/4/1 14/4/1 13/4/1
f 16/4/1 14/4/1 15/4/1
f 17/4/1 15/4/1 13/4/1
f 18/4/1 15/4/1 17/4/1
f 21/1/1 20/1/1 19/1/1
f 22/1/1 20/1/1 21/1/1
f 25/1/1 24/1/1 23/1/1
f 26/1/1 24/1/1 25/1/1
f 31/1/1 28/1/1 27/1/1
f 32/1/1 28/1/1 31/1/1
f 33/1/1 30/1/1 29/1/1
f 34/1/1 30/1/1 33/1/1
f 37/1/1 36/1/1 35/1/1
f 38/1/1 36/1/1 37/1/1
f 39/4/2 40/4/2 41/4/2
f 41/4/2 40/4/2 42/4/2
f 43/1/2 44/1/2 45/1/2
f 45/1/2 44/1/2 46/1/2
f 47/4/2 48/4/2 49/4/2
f 49/4/2 48/4/2 50/4/2
f 51/1/2 52/1/2 53/1/2
f 53/1/2 52/1/2 54/1/2
f 55/1/2 56/1/2 59/1/2
f 59/1/2 56/1/2 60/1/2
f 57/1/2 58/1/2 61/1/2
f 61/1/2 58/1/2 62/1/2
f 63/1/2 64/1/2 65/1/2
f 65/1/2 64/1/2 66/1/2
f 67/3/2 68/3/2 69/3/2
f 69/3/2 68/3/2 70/3/2
f 73/3/3 72/3/3 71/3/3
f 75/3/3 73/3/3 71/3/3
f 76/1/3 74/1/3 73/1/3
f 76/3/3 73/3/3 75/3/3
f 77/1/3 74/1/3 76/1/3
f 78/2/3 76/2/3 75/2/3
f 79/2/3 76/2/3 78/2/3
f 81/3/3 79/3/3 78/3/3
f 81/1/3 80/1/3 79/1/3
f 82/1/3 80/1/3 81/1/3
f 83/3/3 81/3/3 78/3/3
f 84/3/3 81/3/3 83/3/3
f 87/1/3 86/1/3 85/1/3
f 88/1/3 86/1/3 87/1/3
f 91/1/3 90/1/3 89/1/3
f 92/1/3 90/1/3 91/1/3
f 95/4/3 94/4/3 93/4/3
f 96/4/3 94/4/3 95/4/3
f 99/4/3 98/4/3 97/4/3
f 100/4/3 98/4/3 99/4/3
f 103/4/3 102/4/3 101/4/3
f 104/4/3 102/4/3 103/4/3
f 107/1/3 106/1/3 105/1/3
f 108/1/3 106/1/3 107/1/3
f 109/4/4 110/4/4 111/4/4
f 111/4/4 110/4/4 112/4/4
f 113/1/4 114/1/4 115/1/4
f 115/1/4 114/1/4 116/1/4
f 117/4/4 118/4/4 120/4/4
f 119/4/4 120/4/4 121/4/4
f 120/4/4 118/4/4 122/4/4
f 121/4/4 120/4/4 122/4/4
f 123/1/4 124/1/4 125/1/4
f 125/1/4 124/1/4 126/1/4
f 127/1/4 128/1/4 129/1/4
f 129/1/4 128/1/4 130/1/4
f 131/3/4 132/3/4 133/3/4
f 131/3/4 133/3/4 135/3/4
f 133/1/4 134/1/4 136/1/4
f 135/3/4 133/3/4 136/3/4
f 136/1/4 134/1/4 137/1/4
f 135/2/4 136/2/4 138/2/4
f 138/2/4 136/2/4 139/2/4
f 138/3/4 139/3/4 141/3/4
f 139/1/4 140/1/4 141/1/4
f 141/1/4 140/1/4 142/1/4
f 138/3/4 141/3/4 143/3/4
f 143/3/4 141/3/4 144/3/4
f 149/3/5 146/3/5 145/3/5
f 150/2/5 147/2/5 146/2/5
f 150/3/5 146/3/5 149/3/5
f 151/3/5 148/3/5 147/3/5
f 151/2/5 147/2/5 150/2/5
f 152/3/5 148/3/5 151/3/5
f 155/4/5 154/4/5 153/4/5
f 156/4/5 154/4/5 155/4/5
f 157/4/5 155/4/5 153/4/5
f 158/4/5 154/4/5 156/4/5
f 159/4/5 157/4/5 153/4/5
f 159/4/5 158/4/5 157/4/5
f 160/4/5 154/4/5 158/4/5
f 160/4/5 158/4/5 159/4/5
f 163/4/5 162/4/5 161/4/5
f 164/4/5 162/4/5 163/4/5
f 169/3/6 170/3/6 171/3/6
f 171/3/6 170/3/6 172/3/6
f 165/3/6 166/3/6 173/3/6
f 173/3/6 166/3/6 174/3/6
f 165/3/6 173/3/6 175/3/6
f 175/3/6 173/3/6 176/3/6
f 165/3/6 175/3/6 177/3/6
f 176/3/6 173/3/6 178/3/6
f 178/3/6 173/3/6 179/3/6
f 177/3/6 178/3/6 179/3/6
f 172/3/6 170/3/6 182/3/6
f 177/3/6 179/3/6 183/3/6
f 179/3/6 180/3/6 183/3/6
f 165/3/6 177/3/6 183/3/6
f 183/3/6 180/3/6 184/3/6
f 167/2/6 168/2/6 185/2/6
f 185/2/6 168/2/6 186/2/6
f 181/3/6 182/3/6 187/3/6
f 182/3/6 170/3/6 188/3/6
f 187/3/6 182/3/6 188/3/6
f 191/1/6 192/1/6 193/1/6
f 189/1/6 190/1/6 196/1/6
f 195/1/6 196/1/6 197/1/6
f 196/1/6 190/1/6 198/1/6
f 197/1/6 196/1/6 198/1/6
f 193/1/6 194/1/6 199/1/6
f 191/1/6 193/1/6 199/1/6
f 199/1/6 194/1/6 200/1/6
f 198/1/6 190/1/6 201/1/6
f 201/1/6 190/1/6 202/1/6
f 191/1/6 199/1/6 203/1/6
f 203/1/6 199/1/6 204/1/6
f 205/4/6 206/4/6 208/4/6
f 207/4/6 208/4/6 209/4/6
f 208/4/6 206/4/6 210/4/6
f 209/4/6 208/4/6 210/4/6
f 210/4/6 206/4/6 212/4/6
f 211/4/6 212/4/6 213/4/6
f 212/4/6 206/4/6 214/4/6
f 213/4/6 212/4/6 214/4/6
f 215/4/6 216/4/6 217/4/6
f 217/4/6 216/4/6 218/4/6
